<svg xmlns="http://www.w3.org/2000/svg" viewBox="0 0 32 32" fill="none">
  <rect width="32" height="32" rx="7" fill="#faf5ff" />
  <g fill="#7c3aed" transform="translate(4 4)">
    <path
      d="M12 4a1 1 0 011 1v1.2a4.5 4.5 0 013.8 3.8H17a1 1 0 110 2h-.2a4.5 4.5 0 01-3.8 3.8V17a1 1 0 11-2 0v-.2a4.5 4.5 0 01-3.8-3.8H7a1 1 0 110-2h.2a4.5 4.5 0 013.8-3.8V5a1 1 0 011-1z"
    />
    <path
      opacity="0.88"
      d="M8 10.5a1 1 0 01.2 2H7a1 1 0 01-.2-2H8zm8 0a1 1 0 01.2 2H15a1 1 0 01-.2-2H16zM10.5 8a1 1 0 012 0v.2a1 1 0 11-2 0V8zm0 7.8a1 1 0 012 0V16a1 1 0 11-2 0v-.2z"
    />
  </g>
</svg>
